<?xml version="1.0" encoding="utf-8"?>
<!-- Generator: Adobe Illustrator 24.0.3, SVG Export Plug-In . SVG Version: 6.00 Build 0)  -->
<svg version="1.1" id="Calque_1" xmlns="http://www.w3.org/2000/svg" xmlns:xlink="http://www.w3.org/1999/xlink" x="0px" y="0px"
	 viewBox="0 0 347 350" style="enable-background:new 0 0 347 350;" xml:space="preserve">
<style type="text/css">
	.st0{clip-path:url(#SVGID_2_);fill:#FFFFFF;}
	.st1{clip-path:url(#SVGID_4_);fill:#FFFFFF;}
	.st2{clip-path:url(#SVGID_6_);fill:#E6344D;}
	.st3{clip-path:url(#SVGID_8_);fill:#E6344D;}
	.st4{clip-path:url(#SVGID_10_);fill:none;}
	.st5{clip-path:url(#SVGID_12_);fill:none;}
	.st6{fill:none;}
	.st7{fill:#FFFFFF;}
	.st8{font-family:'SharpSansNo1-Semibold';}
	.st9{font-size:77px;}
	.st10{letter-spacing:-2;}
	.st11{font-family:'SharpSansNo1-Book';}
</style>
<g>
	<g>
		<defs>
			<path id="SVGID_1_" d="M218.88,45.87c-17.76,0-33.99,6.48-46.5,17.19c-12.51-10.71-28.74-17.19-46.5-17.19
				c-39.51,0-71.54,32.03-71.54,71.54s32.03,71.54,71.54,71.54c17.76,0,33.99-6.48,46.5-17.19c12.51,10.71,28.74,17.19,46.5,17.19
				c39.51,0,71.54-32.03,71.54-71.54C290.42,77.89,258.39,45.87,218.88,45.87z"/>
		</defs>
		<clipPath id="SVGID_2_">
			<use xlink:href="#SVGID_1_"  style="overflow:visible;"/>
		</clipPath>
		<path class="st0" d="M218.89,42.61c-17.89,0-34.24,6.52-46.88,17.27c-12.64-10.75-28.99-17.27-46.88-17.27
			c-11.3,0-21.94,2.66-31.47,7.27C73.49,24.39,42.31,8.02,7.28,8.02c-39.66,0-74.41,20.98-93.79,52.43
			c-13.84-12.56-32.15-20.28-52.32-20.28c-43.05,0-77.96,34.9-77.96,77.96s34.9,77.96,77.96,77.96c20.16,0,38.48-7.72,52.32-20.28
			c19.38,31.45,54.13,52.43,93.79,52.43c37.05,0,69.81-18.32,89.76-46.38c8.64,3.64,18.12,5.65,28.08,5.65
			c17.89,0,34.24-6.52,46.88-17.27c12.64,10.75,28.99,17.27,46.88,17.27c40.01,0,72.44-32.43,72.44-72.44
			C291.33,75.05,258.9,42.61,218.89,42.61z"/>
	</g>
	<g>
		<defs>
			<path id="SVGID_3_" d="M218.88,45.87c-17.76,0-33.99,6.48-46.5,17.19c-12.51-10.71-28.74-17.19-46.5-17.19
				c-39.51,0-71.54,32.03-71.54,71.54s32.03,71.54,71.54,71.54c17.76,0,33.99-6.48,46.5-17.19c12.51,10.71,28.74,17.19,46.5,17.19
				c39.51,0,71.54-32.03,71.54-71.54C290.42,77.89,258.39,45.87,218.88,45.87z"/>
		</defs>
		<clipPath id="SVGID_4_">
			<use xlink:href="#SVGID_3_"  style="overflow:visible;"/>
		</clipPath>
		<rect x="30.85" y="0.81" class="st1" width="297.17" height="227.42"/>
	</g>
	<g>
		<defs>
			<path id="SVGID_5_" d="M218.88,45.87c-17.76,0-33.99,6.48-46.5,17.19c-12.51-10.71-28.74-17.19-46.5-17.19
				c-39.51,0-71.54,32.03-71.54,71.54s32.03,71.54,71.54,71.54c17.76,0,33.99-6.48,46.5-17.19c12.51,10.71,28.74,17.19,46.5,17.19
				c39.51,0,71.54-32.03,71.54-71.54C290.42,77.89,258.39,45.87,218.88,45.87z"/>
		</defs>
		<clipPath id="SVGID_6_">
			<use xlink:href="#SVGID_5_"  style="overflow:visible;"/>
		</clipPath>
		<path class="st2" d="M167.95,77.8c-3.49,7.07-6.77,13.73-10.05,20.37c-0.24-0.35-0.74-1.08-1.22-1.82
			c-9.36-14.1-27.04-19.9-42.84-14.05c-16.08,5.95-25.57,21.96-23.35,39.34c2.07,16.13,15.67,29.12,32.27,30.84
			c20.77,2.15,38.93-13.55,39.82-34.58c0.34-8.18,1.64-16.11,4.79-23.7c9.64-23.23,33.52-37.06,59.04-34.18
			c24.42,2.76,44.88,22.26,48.93,46.64c5.72,34.45-19.57,65.43-54.54,66.43c-16.5,0.47-30.61-5.55-42.21-17.34
			c-0.38-0.39-0.69-0.84-0.68-0.82c3.46-7,6.76-13.69,9.98-20.2c1.54,1.96,3.2,4.4,5.19,6.53c10.92,11.73,28.36,14.8,42.62,7.58
			c14.45-7.3,22.42-23.27,19.49-38.98c-2.97-15.91-15.98-27.94-31.97-29.58c-21.08-2.16-39.21,13.64-39.96,35
			c-0.56,15.92-5.48,30.01-16.93,41.41c-17.36,17.3-43.91,21.4-65.66,10.26c-21.67-11.1-34.09-35.02-30.46-58.62
			c3.83-24.84,22.55-44.08,47.02-47.92c18.81-2.95,35.16,2.39,48.97,15.49c0.53,0.51,1.04,1.05,1.54,1.59
			C167.92,77.71,168.06,77.96,167.95,77.8z"/>
	</g>
	<g>
		<defs>
			<path id="SVGID_7_" d="M218.88,45.87c-17.76,0-33.99,6.48-46.5,17.19c-12.51-10.71-28.74-17.19-46.5-17.19
				c-39.51,0-71.54,32.03-71.54,71.54s32.03,71.54,71.54,71.54c17.76,0,33.99-6.48,46.5-17.19c12.51,10.71,28.74,17.19,46.5,17.19
				c39.51,0,71.54-32.03,71.54-71.54C290.42,77.89,258.39,45.87,218.88,45.87z"/>
		</defs>
		<clipPath id="SVGID_8_">
			<use xlink:href="#SVGID_7_"  style="overflow:visible;"/>
		</clipPath>
		<circle class="st3" cx="218.88" cy="116.41" r="13.87"/>
	</g>
	<g>
		<defs>
			<path id="SVGID_9_" d="M218.88,45.87c-17.76,0-33.99,6.48-46.5,17.19c-12.51-10.71-28.74-17.19-46.5-17.19
				c-39.51,0-71.54,32.03-71.54,71.54s32.03,71.54,71.54,71.54c17.76,0,33.99-6.48,46.5-17.19c12.51,10.71,28.74,17.19,46.5,17.19
				c39.51,0,71.54-32.03,71.54-71.54C290.42,77.89,258.39,45.87,218.88,45.87z"/>
		</defs>
		<clipPath id="SVGID_10_">
			<use xlink:href="#SVGID_9_"  style="overflow:visible;"/>
		</clipPath>
		<path class="st4" d="M217.63,45.87c-17.49,0-33.48,6.37-45.83,16.88c-12.36-10.51-28.34-16.88-45.83-16.88
			c-11.04,0-21.45,2.6-30.77,7.11C75.48,28.06,45,12.06,10.76,12.06c-38.77,0-72.74,20.51-91.69,51.26
			c-13.53-12.28-31.43-19.83-51.14-19.83c-42.09,0-76.21,34.12-76.21,76.21s34.12,76.21,76.21,76.21c19.71,0,37.61-7.55,51.14-19.83
			c18.95,30.75,52.92,51.26,91.69,51.26c36.22,0,68.24-17.91,87.75-45.34c8.44,3.55,17.72,5.52,27.45,5.52
			c17.49,0,33.47-6.37,45.83-16.88c12.36,10.51,28.34,16.88,45.83,16.88c39.11,0,70.82-31.71,70.82-70.82
			C288.45,77.58,256.74,45.87,217.63,45.87z"/>
	</g>
	<g>
		<defs>
			<path id="SVGID_11_" d="M218.88,45.87c-17.76,0-33.99,6.48-46.5,17.19c-12.51-10.71-28.74-17.19-46.5-17.19
				c-39.51,0-71.54,32.03-71.54,71.54s32.03,71.54,71.54,71.54c17.76,0,33.99-6.48,46.5-17.19c12.51,10.71,28.74,17.19,46.5,17.19
				c39.51,0,71.54-32.03,71.54-71.54C290.42,77.89,258.39,45.87,218.88,45.87z"/>
		</defs>
		<clipPath id="SVGID_12_">
			<use xlink:href="#SVGID_11_"  style="overflow:visible;"/>
		</clipPath>
		<path class="st5" d="M218.88,45.02c-17.66,0-33.82,6.41-46.3,17.02c-12.48-10.61-28.63-17.02-46.3-17.02
			c-15.34,0-29.53,4.84-41.18,13.06C67.29,36.22,40.16,22.26,9.77,22.26c-53.67,0-97.18,43.51-97.18,97.18s43.51,97.18,97.18,97.18
			c32.12,0,60.59-15.59,78.28-39.61c11.06,7.01,24.17,11.09,38.24,11.09c17.66,0,33.82-6.41,46.3-17.02
			c12.48,10.61,28.63,17.02,46.3,17.02c39.51,0,71.54-32.03,71.54-71.54S258.39,45.02,218.88,45.02z"/>
	</g>
</g>
<rect x="71.21" y="206.53" class="st6" width="218.14" height="81.38"/>
<text transform="matrix(1 0 0 1 71.2102 262.7408)" class="st7 st8 st9 st10">oc</text>
<text transform="matrix(1 0 0 1 153.6002 262.7408)" class="st7 st11 st9 st10">e</text>
<text transform="matrix(1 0 0 1 197.9502 262.7408)" class="st7 st8 st9 st10">co</text>
</svg>
